<?xml version="1.0" encoding="UTF-8"?><svg id="Layer_2" xmlns="http://www.w3.org/2000/svg" viewBox="0 0 2304.32 2213.64"><defs><style>.cls-1{fill:none;stroke:#ffffff;stroke-linecap:round;stroke-linejoin:round;stroke-width:11px;}</style></defs><path class="cls-1" d="M1022.56,1233.38s6.47-1.94,11.65,0,17.48,15.86,15.21,21.68-29.13,15.21-33.34,21.68c0,0-10.44,11.1-12.34,15.26"/><path class="cls-1" d="M1060.82,1262.27s34.07-32.44,87.07-9.27c0,0,45.63,26.33,81.43,57.92,0,0,49.57,33.14,107.42-13.19,0,0,15.67-21.56,8.36-43.68"/><path class="cls-1" d="M1229.32,1310.92s-36.86-58.29-32.65-84.43c0,0-7.71-19.62,16.16-67.12,0,0,6.4-5.05,16.49-23.27,0,0,13.78-58.71-2.18-113.93,0,0-62.17-148.48-60.94-178.33,0,0-3.68-99.39,2.05-122.71"/><path class="cls-1" d="M1183.79,844.25s20.45-49.49,63.81-53.58c0,0,12.68-2.45,22.5,0l32.31,1.64"/><path class="cls-1" d="M1187.88,879.84s20.04-53.99,75.67-68.72c0,0,17.59-1.09,35.18,5.79l26.18,4.43"/><path class="cls-1" d="M1199.94,904.79s19.02-33.95,25.16-37.63c0,0,9.41-15.54,35.18-19.63,0,0,28.22-5.38,36.4-2.08l22.5,11.08"/><path class="cls-1" d="M1216.65,954.66s13.73-61.63,78.28-72.15c0,0,23.08-7.59,40.6,2.34l11.98,8.76"/><path class="cls-1" d="M1272.67,1083.39c1.21,.36,5.71,5.44,11.18,12.07,11,13.34,25.94,32.95,25.94,32.95,12.17,6.01,20.69-4.79,20.69-4.79,8.52-6.08,10.34-40.22,10.34-40.22,4.26-6.76,15.21-52.27,15.21-52.27,6.08-14.61,9.74-48.67,9.13-69.25s-13.99-38.44-13.99-38.44c-10.95-17.65-41.98-18.65-41.98-18.65-49.62,12.42-44.12,82.52-44.12,82.52,0,0,22.83,25.7,22.83,30.2,0,0,8.82,24.88,8.52,27.92,0,0,2,14.26,0,19.77,0,0-2.34,18.19-14.32,25.25"/><path class="cls-1" d="M1286.26,986.16s-1.72-28.02,2.29-31.49c0,0,9.17-20.67,21.21-24.68,0,0,12.51-8.6,15.14,0,0,0,4.01,13.5,0,18.55,0,0-11.09,10.44-12.78,10.78s-8.42,9.1-3.03,16.85c0,0,19.01,13.48,17.59,26.28,0,0,6.33,23.25,3.3,28.3,0,0,1.68,17.86-7.75,21.9,0,0-11.46,7.08-21.23-2.02"/><path class="cls-1" d="M1285.9,1128.15s-.31,33.55-21.02,53.58c0,0-23.77,13.09-14.55,44.75,0,0,4.04,21.73,14.55,35.78l10.97,15.45"/><path class="cls-1" d="M1301.47,1275.85s-14.91-26.09-8.39-63.37c0,0,16.77-18.17,18.17-34.94s1.36-41.19-7.47-56.94"/><path class="cls-1" d="M1324.3,1154.25s34.48,15.38,37.74,67.56c0,0,.47,27.49-6.52,47.99"/><path class="cls-1" d="M1365.22,1248.83s51.63,79.21,0,121.14"/><path class="cls-1" d="M1377.99,1356.06s32.98,58.18,21.8,106.17"/><path class="cls-1" d="M1356.76,1409.14s77.63,55.41-11.66,172.83"/><path class="cls-1" d="M1000.55,1334.22l7.28,21.83s-3.5,14.4-7.28,18.72c0,0-25.42,37.85-34.07,46.51,0,0-20.01,16.19-17.85,35.13,0,0,.28,30.09-2.57,44.26,0,0-9.33,36.34-19.07,44.45"/><path class="cls-1" d="M1007.83,1350.45s29.45,12.44,53,8.65l34.05-18.31s32.48-26.57,64.25-23.87c0,0,22.58,1.61,38.81,21.35,0,0,10.27,10.55,18.93,10.55s14.34-.54,17.99-3.24"/><path class="cls-1" d="M989.41,1391.01s64.59,25.82,77.07-34.95"/><path class="cls-1" d="M1049.76,1409.14s3.24,14.31,0,19.18c0,0-25.42,25.96-28.66,37.31,0,0-8.83,36.89,15.05,71.71,0,0,16.85,19.68,27.67,22.93l13.69,6.29"/><path class="cls-1" d="M1066.48,1423.07s35.3-3.17,67.48,9.5c0,0,27.96,23.21,31.12,44.84,0,0,16.88,51.37-39.57,70.53,0,0-3.78,4.38-30.64,12.83"/><path class="cls-1" d="M1051.48,1449.02s-8.74,43.9,34.54,73.66"/><path class="cls-1" d="M1089.55,1470.67s9.57,6.87,9.36,14.77"/><path class="cls-1" d="M1096.63,1442.84s21.99,15.54,24.73,23.03c0,0,10.31,16.85-4.4,33.08"/><path class="cls-1" d="M914.81,973.64s-1.72-24.56,24.97-47.51c0,0,38.35-24.56,53.87-37.37s31-50.18,31-50.18l9.89-27.53"/><path class="cls-1" d="M883.74,942.14s-17.62-20.82,28.83-58.72c0,0,30.96-25.62,42.7-44.31,0,0,17.99-26.16,19.41-47.51,0,0,8.37-27.76,7.56-41.64"/><path class="cls-1" d="M754.56,980.04s41.64,39.95,85.94,34.66"/><path class="cls-1" d="M761.49,1043.57s36.83,18.08,63.52,10.91"/><circle class="cls-1" cx="849.4" cy="1161.55" r="2.18"/><circle class="cls-1" cx="1014.99" cy="1060.06" r="2.18"/><path class="cls-1" d="M826.18,1213.71s31.99,2.77,47.8-6.38"/><path class="cls-1" d="M965.01,1083.39c1.21-.13,.11-22.29,40.17-45.83,0,0,14.57-8.03,30.02-8.48l37.53,2.21s15.89,0,24.28-5.74"/><path class="cls-1" d="M1030.63,1092.98c-34.38,6.91-50.33-2.81-50.33-2.81"/><path class="cls-1" d="M982.23,1114.13s17.81-4.06,43.71-18.38c24.19-13.38,43.68-37.43,50.76-64.63"/><path class="cls-1" d="M1034.55,1059.2c0,12.2-8.03,22.98-20.23,22.98s-22.23-8.64-20.47-20.72c1.85-12.7,8.91-22.36,20.47-23.46,9.5-.9,20.23,9,20.23,21.2Z"/><path class="cls-1" d="M1529.88,1697.72l-77.31-298.45s76.02,114.03,83.94,117.99,11.09-70.48-30.88-133.83-90.55-85.7-90.55-85.7"/><path class="cls-1" d="M1764.51,1418.66l-405.27-245.17s44.32-49.9,47.25-73.39,7.83-6.85,.98-63.64c0,0,11.75-22.09,11.75-56.83s-17.37-72.82-17.37-72.82c0,0-26.72-32.07-30.06-44.76s-14.7-50.77-40.09-87.52-86.85-77.5-136.29-93.53-128.27-33.4-204.44-19.37-111.67,20.5-157,48.87c0,0-39.22,21.56-55.67,45.96l27.24-10.21s3.97-8.51,23.83-11.92c0,0-4.57,11.44,3.37,26.76,0,0,25-8.6,28.97,1.61s-16.46,24.97-16.46,24.97l-32.91,15.32,18.16,.57s10.78,7.38,0,14.19-41.42-6.81-41.42-6.81l34.61,16.46s-9.08,15.32-22.7,11.92-32.34-22.7-32.34-22.7l18.16,27.24s7.94,15.32-9.65,10.78-30.64-24.97-30.64-24.97c0,0-11.92-11.35-7.38-39.72,0,0-6.03-24.4-1.03-38.02s11.81,20.43,11.81,20.43c0,0,17.02-29.51,22.7-28.94l4.13,8.61"/><path class="cls-1" d="M908.36,1381.76c-28.62-19.5-28.21-23.65-42.73-34.85s-33.05-40.48-33.05-40.48c-12.62-16.33-25.98-81.64-25.98-81.64,0-18.55-13.36-27.46-13.36-27.46l-27.46-23.01-14.84-15.59c-15.59-11.87-21.52-30.43-21.52-30.43,0,0-8.91-22.27-15.59-48.98s-3.71-24.49-7.42-41.77-2.97-44.33-2.97-44.33c-4.45-28.94,5.94-66.8,5.94-66.8-.74-34.14,37.15-96.79,37.15-96.79"/><path class="cls-1" d="M945.03,1325.11s-52.14,50.3-56.04,131.81"/><path class="cls-1" d="M797.26,1194.67s6.43-54.66,75.79-57.88c0,0,22.51,4.59,28.02,13.78l23.43,110.7s4.59,45.93,26.18,67.52c0,0,11.94,12.86,31.24,11.94s25.26-28.02,25.26-28.02c0,0,3.67-13.32-14.7-43.18l-18.37-20.67s-5.48-22.5-7.67-29.8-12.26-41.61-12.26-41.61l-15.68-52.86s-3.01-40.4,2.01-48.64,19.48-49,41.79-66.85,32.22-32.94,50.97-39.41,37.83-9.2,50.79-7.16l10.81,4"/><path class="cls-1" d="M942.28,1072.62l-27.46-26.84s54.31-58.78,61.01-62.13,23.44-19.34,47.25-24.55,47.8,0,47.8,0l10.09,3.06"/><path class="cls-1" d="M881.07,1138.92l-20.94-17.5-.86-2.27-10.32-27.2s-23.63,3.56-37.85,11.18c0,0-15.9,9.15-24.21,17.95,0,0-15.89,17.36-18.34,23.72l-11.78,20.07"/><path class="cls-1" d="M779.31,1180.34s15.02-26.66,21.6-33.61,22.97-20.87,53.28-26.33"/><path class="cls-1" d="M882.74,1166.46s-10.92,29.89-37.41,34.37c0,0-23.81,1.97-31.15,0,0,0-7.52-9.84,3.58-29.71,0,0,2.13-13.93,8.85-20.75"/><path class="cls-1" d="M869.5,1160.91c-.2,5.88-8.03,25.87-21.12,24.16-17.9-2.33-20.96-16.01-21.76-18.26-2.95-8.32,9.46-24.91,22.65-24.54,13.34,.37,20.32,15.77,20.23,18.63Z"/><path class="cls-1" d="M1254.5,1662.24c.19-.4,25.05-12.89,38.59-45.36"/><path class="cls-1" d="M1196.41,1823.78s-9.05-46.01,23.12-80.83c0,0,46.55-26.88,69.41-54.13s35.55-66.13,36.4-91.13"/><path class="cls-1" d="M1122.54,1569.17s-1.76,67.18-.99,78.82c.58,8.72,4.26,26.08,14.93,40.84"/><path class="cls-1" d="M1159.12,1766.18s26.99-41.92,29.29-65.47,7.3-51.64,18.71-80.4l27.92-41.29,9.77-12.48s30.05-26.62,63.99-38.19c44.9-15.3,46.14-30.64,46.14-30.64,0,0,8.39-20.32-1.04-54.88"/><path class="cls-1" d="M617.34,1618.8c29.29-30.79,51.63-48.99,72.18-65.16,36.71-28.87,75.37-58.78,132.84-79.47,27.06-9.74,50.49-14.63,66.62-17.26,0,0-3.96,27.37,0,45.33s8.53,45.69,8.53,45.69c-126.1,13.81-222.58,125.35-222.58,125.35"/><path class="cls-1" d="M1832.54,1114.13c0,340.15-237.92,624.74-556.42,696.42-1.05,.24-2.1,.47-3.15,.7-49.68,10.94-101.3,16.71-154.27,16.71-394.24,0-713.83-319.59-713.83-713.83S724.46,400.3,1118.7,400.3s713.83,319.59,713.83,713.83Z"/><path class="cls-1" d="M638.91,1597.43c-124.27-123.38-201.22-294.35-201.22-483.3,0-376.11,304.9-681.01,681.01-681.01s681.01,304.9,681.01,681.01c0,100.84-21.92,196.56-61.25,282.65"/><path class="cls-1" d="M659.03,1579.03c-119.85-118.51-194.11-283.03-194.11-464.9,0-361.07,292.71-653.78,653.78-653.78s653.78,292.71,653.78,653.78c0,45.13-4.57,89.2-13.28,131.76-9.84,48.1-24.97,94.28-44.74,137.9"/><path class="cls-1" d="M695.21,1688.83s92.28-104.33,202.31-119.66l-71.94,192.21"/><path class="cls-1" d="M1041.01,1823.78s-81.37-83.08-198.05-108.85"/><polyline class="cls-1" points="897.51 1547.93 904.53 1585.68 939.76 1625.07"/><path class="cls-1" d="M941.98,1594.16s-19.13,57.8,40.3,112.33c0,0,8.83,2.94,11.04,15.08,0,0-9.89,20.5,83.29,105.17"/><path class="cls-1" d="M1088.92,1605.18s-21.32,98.41,0,137.78"/><path class="cls-1" d="M1224.3,1658.06s5.09-31.38,35.87-52.35,41.02-25.5,41.02-25.5c0,0,25.64-13.99,37.07-33.39l6.84-9.47"/><path class="cls-1" d="M1272.97,1811.25s-2.22-47.2,24.27-74.28,34.5-34.73,47.86-60.64,9.24-59.46,9.24-59.46"/><path class="cls-1" d="M1345.1,1791.31s184.52-401.1,19.52-581.27"/><path class="cls-1" d="M1022.41,1139.77s18.22,1.66,33.96-7.45"/></svg>
