<?xml version="1.0" standalone="no"?>
<!DOCTYPE svg PUBLIC "-//W3C//DTD SVG 20010904//EN"
 "http://www.w3.org/TR/2001/REC-SVG-20010904/DTD/svg10.dtd">
<svg version="1.0" xmlns="http://www.w3.org/2000/svg"
 width="8799.000000pt" height="2300.000000pt" viewBox="0 0 8799.000000 2300.000000"
 preserveAspectRatio="xMidYMid meet">

<g transform="translate(0.000000,2300.000000) scale(0.100000,-0.100000)"
fill="#ffffff" stroke="none">
<path d="M8595 17445 c-38 -7 -122 -20 -185 -30 -428 -64 -679 -214 -818 -490
-17 -33 -62 -98 -101 -145 -193 -232 -250 -323 -259 -409 -4 -44 -1 -50 28
-78 18 -17 30 -35 27 -40 -3 -5 -37 -22 -74 -38 -37 -15 -73 -33 -79 -39 -22
-22 -185 -455 -199 -531 -8 -43 -22 -170 -30 -284 -23 -313 -41 -415 -92 -514
-22 -43 -27 -69 -31 -153 -6 -125 7 -237 58 -513 24 -128 40 -246 41 -295 0
-44 4 -107 8 -139 6 -49 5 -60 -10 -67 -9 -5 -103 -103 -209 -217 -106 -114
-230 -246 -276 -293 -45 -47 -114 -119 -153 -161 -44 -47 -97 -90 -139 -114
-47 -28 -112 -84 -222 -193 -85 -85 -179 -172 -207 -194 -43 -32 -53 -44 -53
-68 0 -38 -38 -63 -120 -79 -47 -9 -64 -18 -82 -42 -13 -17 -37 -45 -53 -63
-49 -51 -417 -359 -511 -428 -48 -35 -123 -95 -166 -134 -43 -39 -116 -92
-161 -119 -173 -101 -236 -143 -372 -246 -78 -58 -195 -138 -262 -178 -102
-61 -137 -89 -230 -186 l-110 -113 -79 -17 c-44 -10 -90 -24 -103 -32 -13 -9
-111 -85 -218 -170 -107 -85 -235 -179 -285 -209 -49 -29 -107 -72 -129 -94
-56 -58 -130 -103 -249 -151 -69 -28 -194 -98 -365 -202 l-259 -159 -146 72
c-270 134 -305 167 -503 472 -56 87 -106 158 -110 158 -25 0 -168 69 -235 113
-133 86 -176 129 -221 220 -23 45 -85 143 -137 217 -221 310 -311 464 -365
622 l-24 67 18 98 c9 54 26 139 37 188 11 50 26 130 34 178 8 49 21 99 30 111
8 13 19 41 25 63 6 23 30 70 53 105 60 90 281 310 343 341 28 14 82 50 120 80
125 97 208 127 385 136 109 6 118 8 181 44 70 40 109 46 129 22 7 -8 17 -15
23 -15 6 0 25 -14 43 -31 21 -20 62 -41 120 -61 49 -16 144 -58 210 -94 92
-48 132 -64 163 -64 47 0 96 -37 138 -104 23 -35 24 -43 14 -78 -7 -21 -9 -43
-6 -48 3 -6 30 -21 59 -35 78 -37 158 -126 209 -232 l42 -88 3 -140 4 -140
-42 -83 c-44 -88 -140 -201 -194 -229 -26 -13 -58 -15 -201 -10 -101 3 -178 1
-188 -4 -20 -11 -47 -60 -47 -84 0 -35 32 -83 70 -104 141 -79 411 15 590 205
137 145 149 185 157 539 8 339 -11 454 -98 602 -41 70 -262 292 -339 341 -30
19 -88 64 -128 100 -40 36 -112 86 -160 111 -68 36 -90 53 -103 80 -27 57 -49
63 -253 62 -99 0 -255 -5 -346 -10 -227 -13 -248 -21 -394 -160 -63 -59 -143
-124 -181 -146 -131 -76 -302 -267 -415 -465 -52 -91 -52 -92 -42 -143 13 -65
7 -80 -53 -125 -55 -42 -79 -93 -115 -247 -20 -83 -21 -113 -18 -365 4 -315 9
-336 96 -451 59 -77 67 -91 86 -159 21 -75 74 -160 173 -282 112 -136 149
-192 214 -318 75 -148 151 -257 279 -404 l111 -126 39 6 c39 6 42 5 122 -73
46 -44 105 -95 131 -112 27 -18 107 -80 178 -137 117 -94 134 -104 172 -105
23 0 50 -4 60 -8 18 -6 18 -7 0 -22 -10 -9 -85 -41 -166 -72 -86 -33 -177 -75
-215 -101 -94 -62 -200 -113 -274 -132 -35 -9 -116 -39 -180 -68 -110 -48
-117 -53 -125 -86 -8 -33 -12 -35 -86 -56 -43 -12 -108 -37 -145 -55 l-67 -34
1 -60 c2 -141 117 -265 273 -295 134 -25 218 -8 298 63 32 28 91 65 130 83 40
19 92 51 115 72 60 55 205 148 477 305 l234 135 239 -119 c137 -69 285 -135
345 -155 162 -52 285 -115 341 -171 76 -78 222 -137 447 -182 133 -27 322 -51
396 -51 78 0 118 -18 191 -85 33 -30 71 -61 86 -69 54 -27 414 -87 637 -106
74 -7 182 -24 250 -41 133 -33 138 -34 310 -24 84 5 168 2 281 -9 185 -18 327
-20 405 -6 169 32 358 115 399 175 43 66 58 70 132 39 55 -23 72 -26 132 -21
37 3 76 12 85 20 9 8 61 37 116 65 82 42 133 80 286 211 102 88 193 170 202
184 9 13 29 39 46 57 16 18 47 67 68 109 21 42 56 108 79 146 63 109 124 251
149 350 54 214 81 569 72 955 -6 253 -20 373 -81 700 -19 102 -40 241 -46 310
-6 69 -24 202 -41 295 -16 94 -39 229 -50 300 -13 79 -38 181 -65 260 -24 72
-48 159 -54 195 -6 36 -24 124 -41 195 -33 150 -88 517 -96 654 l-6 93 197
192 c109 105 216 219 239 253 23 34 93 117 154 184 62 66 145 169 184 228 47
69 110 144 183 216 102 102 117 121 184 245 56 106 91 156 158 230 80 89 144
171 144 185 0 12 118 180 140 200 28 25 45 60 54 105 3 20 33 85 67 144 47 85
63 127 75 189 18 95 43 162 89 237 41 66 65 175 65 300 0 47 5 104 10 127 8
33 6 52 -6 85 -18 49 -18 45 -8 153 12 145 -28 246 -146 370 -37 39 -77 89
-89 112 -12 23 -30 47 -40 53 -25 13 -117 11 -206 -5z m19 -368 c17 -18 62
-86 101 -151 l69 -118 1 -91 c1 -80 5 -102 34 -172 41 -99 49 -174 28 -258 -9
-34 -18 -102 -20 -152 -4 -75 -13 -115 -56 -241 -28 -84 -51 -158 -51 -165 0
-7 -25 -50 -56 -96 -31 -46 -64 -108 -73 -137 -13 -41 -27 -63 -61 -91 -25
-21 -55 -55 -68 -78 -12 -22 -47 -66 -77 -99 -30 -32 -67 -75 -82 -96 -76
-102 -159 -199 -269 -312 -67 -69 -131 -144 -142 -166 -23 -44 -93 -105 -225
-193 -83 -55 -127 -111 -195 -247 -18 -36 -46 -72 -69 -89 -63 -49 -294 -205
-303 -205 -10 0 -35 103 -55 221 -17 109 -19 199 -5 319 7 59 6 112 -1 173
-10 73 -9 102 5 175 8 48 20 128 26 179 13 113 36 190 107 358 31 72 66 159
78 195 31 92 60 144 125 230 31 41 65 90 74 108 19 37 58 168 76 254 14 70 45
118 88 137 25 11 53 48 127 167 62 99 110 164 136 185 22 17 104 63 182 102
177 87 240 128 277 182 20 29 39 44 60 48 21 5 40 20 63 53 80 117 99 126 151
71z m-1635 -3679 c6 -29 24 -133 41 -232 38 -219 66 -344 85 -373 8 -12 15
-39 15 -59 0 -56 40 -217 60 -239 38 -43 52 -86 46 -139 -20 -163 -19 -184 29
-465 75 -447 89 -640 60 -831 -8 -52 -24 -230 -35 -395 -35 -510 -35 -507 -80
-655 -44 -142 -102 -269 -151 -331 -16 -21 -43 -77 -59 -124 -33 -96 -62 -150
-88 -160 -9 -4 -41 -15 -70 -26 -55 -19 -289 -160 -357 -214 -22 -18 -89 -63
-150 -101 -122 -75 -194 -99 -410 -135 -178 -29 -306 -32 -1025 -20 -696 11
-746 15 -882 64 -35 13 -94 41 -132 63 -37 21 -81 47 -99 56 -18 9 -169 40
-337 68 -314 54 -395 75 -647 173 -174 68 -533 266 -533 295 0 14 32 39 60 47
14 4 50 31 80 60 82 77 124 101 254 145 159 53 202 79 216 130 12 44 42 70 81
70 34 0 59 18 479 330 486 362 589 433 765 535 55 31 123 78 151 104 28 26
123 102 211 168 209 160 316 256 442 397 66 74 159 162 255 240 83 69 185 157
227 198 42 40 134 118 205 173 76 60 238 208 401 368 150 147 277 267 282 267
5 0 108 109 230 243 193 213 340 357 362 357 4 0 12 -24 18 -52z"/>
<path d="M66715 17019 c-33 -5 -150 -25 -260 -44 -110 -19 -239 -42 -288 -50
-161 -28 -315 -86 -468 -177 -56 -34 -99 -50 -158 -62 -137 -28 -305 -95 -452
-182 -86 -50 -109 -72 -124 -117 -11 -34 -19 -39 -178 -112 -85 -39 -105 -62
-118 -131 -5 -27 -28 -74 -54 -114 -115 -173 -199 -372 -264 -626 -57 -223
-81 -374 -81 -509 l0 -112 41 -6 c23 -3 52 -16 66 -29 33 -30 28 -73 -21 -193
-20 -49 -36 -101 -36 -116 0 -14 22 -80 50 -146 27 -67 78 -199 114 -294 90
-246 193 -504 229 -574 55 -110 99 -169 194 -263 98 -97 142 -159 234 -325 59
-108 135 -204 298 -373 113 -118 185 -171 376 -279 66 -37 163 -93 215 -125
119 -73 198 -93 645 -166 88 -14 162 -27 164 -29 7 -7 -202 -236 -279 -306
-41 -38 -93 -91 -114 -118 -22 -28 -62 -62 -90 -77 -104 -56 -134 -90 -161
-182 -19 -62 -65 -114 -177 -200 -122 -94 -594 -518 -896 -806 -240 -228 -257
-247 -324 -354 -90 -145 -123 -170 -253 -188 -43 -6 -77 -26 -241 -140 l-190
-132 -70 18 c-38 11 -148 50 -245 89 -97 38 -198 76 -225 84 -27 8 -146 62
-264 119 -191 93 -224 106 -299 116 -113 16 -151 36 -178 93 l-22 45 -403 183
c-222 100 -455 211 -518 246 -240 132 -333 166 -515 189 -118 15 -199 37 -263
70 -42 22 -73 20 -186 -9 -120 -31 -146 -31 -243 0 -102 32 -130 32 -187 -6
-37 -25 -63 -33 -124 -40 -42 -5 -87 -14 -100 -20 -24 -14 -72 -83 -95 -141
-9 -20 -28 -47 -44 -61 -15 -13 -84 -73 -153 -132 -236 -202 -267 -255 -330
-550 -17 -83 -44 -177 -58 -210 -27 -60 -27 -62 -27 -295 1 -173 5 -260 18
-330 49 -281 139 -471 302 -633 220 -220 529 -345 1000 -403 280 -35 498 -21
804 52 110 26 165 34 240 34 156 1 240 20 363 84 85 44 118 56 153 56 107 0
738 301 945 450 45 32 105 67 133 76 29 9 77 29 108 45 95 47 286 177 309 209
36 50 183 174 310 260 l118 80 134 -49 c188 -69 274 -94 513 -147 340 -75 467
-118 635 -215 143 -82 249 -113 542 -158 109 -17 217 -35 240 -41 24 -5 95
-10 158 -10 108 0 124 -3 235 -40 l119 -40 231 0 c217 0 234 -2 308 -25 59
-19 100 -25 170 -25 51 -1 128 -7 172 -15 103 -19 206 -19 325 0 52 9 138 20
190 26 282 31 341 40 388 58 88 35 207 61 324 71 99 8 259 37 314 56 26 10 64
45 64 60 0 7 12 26 26 43 24 29 31 31 90 31 l64 0 63 63 c34 35 95 92 135 127
76 67 134 137 147 180 4 14 29 48 54 76 26 28 61 77 78 110 17 32 54 84 81
114 65 73 107 140 176 284 43 89 68 128 103 160 73 67 93 109 104 228 6 57 19
126 30 153 10 28 28 105 38 173 13 81 27 134 40 155 56 87 66 119 149 492 42
187 65 319 82 465 5 47 17 144 26 215 18 150 15 290 -16 675 -11 135 -20 315
-20 400 0 85 -5 171 -10 190 -6 19 -27 103 -48 185 -50 195 -69 249 -104 304
-38 60 -63 146 -77 258 -18 146 -75 298 -155 416 -36 52 -61 103 -117 234 -26
62 -63 134 -82 160 -19 27 -69 112 -110 191 -47 88 -102 174 -144 225 -37 45
-76 94 -85 107 -16 24 -16 22 -2 -30 9 -30 42 -95 73 -145 136 -213 219 -377
272 -537 36 -109 154 -402 213 -528 21 -45 26 -70 26 -135 0 -53 5 -90 16
-110 14 -27 57 -286 130 -785 34 -234 42 -441 21 -525 -19 -71 -32 -196 -47
-430 -26 -406 -45 -492 -183 -830 -83 -205 -124 -320 -141 -405 -19 -92 -36
-121 -94 -163 -46 -33 -82 -86 -82 -121 0 -9 -11 -38 -24 -64 -13 -26 -45
-108 -71 -182 -76 -217 -94 -244 -278 -431 -182 -185 -262 -244 -453 -335 -65
-32 -135 -70 -154 -86 -19 -16 -67 -50 -107 -76 -61 -40 -84 -64 -148 -154
-42 -59 -80 -110 -85 -113 -23 -14 -149 17 -227 56 l-82 41 -143 -36 c-252
-63 -390 -79 -808 -91 -149 -5 -246 -13 -315 -26 -179 -35 -208 -38 -350 -40
-121 -2 -154 1 -248 24 -59 15 -139 40 -178 57 -61 26 -84 30 -158 30 -59 0
-118 8 -181 24 -70 18 -134 25 -245 29 -175 7 -230 20 -375 87 -126 58 -234
88 -485 135 -223 41 -425 86 -425 94 1 3 38 34 83 67 236 176 618 544 730 704
106 152 243 303 615 682 192 196 392 407 445 470 129 151 264 325 287 368 18
35 183 232 237 283 l29 27 105 -15 c130 -18 334 -19 459 -1 139 20 257 54 278
80 34 44 73 61 157 67 62 5 95 14 145 39 92 46 214 129 293 199 37 33 120 92
185 130 64 38 136 83 160 100 53 39 117 136 138 209 15 49 15 61 0 121 -8 36
-18 82 -21 102 l-7 37 -65 7 -66 7 -144 -144 c-79 -78 -164 -173 -188 -209
-25 -36 -82 -101 -127 -143 -99 -92 -241 -168 -354 -189 -67 -13 -113 -34
-192 -92 -21 -15 -52 -26 -85 -29 -29 -3 -134 -13 -234 -23 l-183 -19 38 39
c20 21 87 81 147 132 118 100 287 269 510 510 76 83 228 240 336 350 191 194
199 203 243 296 51 108 99 160 166 180 39 12 54 30 249 298 115 157 214 297
221 311 7 14 29 43 47 65 46 53 121 209 129 266 8 56 -9 74 -61 66 -19 -3
-115 -48 -214 -100 -143 -76 -188 -106 -227 -147 -72 -77 -100 -126 -124 -215
-27 -102 -70 -179 -186 -331 -51 -67 -113 -152 -139 -189 l-45 -67 20 -34 c17
-26 19 -37 10 -54 -12 -23 -87 -63 -169 -91 -69 -24 -138 -64 -151 -89 -5 -10
-10 -33 -10 -50 0 -27 -13 -44 -83 -111 -46 -43 -94 -99 -107 -124 -22 -43
-69 -91 -159 -163 -56 -45 -108 -116 -176 -242 -31 -58 -70 -122 -85 -143 -25
-35 -363 -337 -420 -375 -36 -25 -533 -24 -669 1 -106 20 -329 102 -497 183
-106 50 -121 62 -294 220 -196 180 -243 239 -280 348 -11 35 -50 115 -86 177
-152 263 -196 375 -243 609 -82 413 -100 697 -56 878 31 129 31 151 -1 254
-37 116 -31 174 41 380 l55 162 -24 36 c-13 19 -33 55 -45 79 l-22 43 25 51
c14 29 48 83 74 122 40 57 55 72 87 81 24 6 47 22 59 40 12 16 42 55 69 87 56
70 64 96 48 156 -11 40 -10 47 5 58 10 7 25 13 33 14 9 0 77 70 151 156 74 85
154 172 178 193 63 57 158 103 542 265 131 56 512 134 691 142 140 7 218 -3
484 -64 224 -50 371 -89 501 -133 71 -24 104 -30 177 -30 93 0 120 -8 152 -46
12 -15 71 -44 149 -74 71 -28 179 -76 240 -108 61 -31 146 -72 189 -91 87 -38
130 -80 147 -141 16 -60 64 -98 215 -173 152 -75 217 -128 286 -231 28 -42 58
-72 100 -98 58 -37 98 -93 99 -138 0 -22 118 -210 153 -245 l30 -30 -7 30 c-4
16 -33 70 -63 120 -31 49 -87 153 -123 230 -37 77 -88 167 -113 200 -52 69
-324 329 -472 450 -248 204 -389 294 -643 409 -531 243 -844 328 -1350 371
-200 16 -237 17 -327 4z m-6076 -6886 c49 -18 60 -18 145 -5 145 21 395 21
491 -2 44 -10 93 -25 108 -33 53 -27 135 -34 263 -22 119 12 121 12 240 -19
172 -44 341 -108 607 -228 353 -161 455 -204 526 -220 36 -9 116 -40 178 -69
62 -29 213 -85 335 -124 284 -91 428 -143 422 -152 -6 -10 -333 -212 -459
-284 -66 -37 -124 -81 -171 -126 l-70 -70 -55 26 c-93 43 -128 31 -167 -58
-24 -54 -33 -60 -278 -191 -340 -182 -648 -305 -878 -351 -259 -51 -575 -75
-1026 -75 l-285 0 -29 30 c-48 52 -81 63 -206 70 -65 3 -126 12 -140 19 -14 8
-114 103 -223 211 -231 232 -238 243 -262 425 -17 131 -14 193 17 295 25 82
45 120 112 219 38 55 58 96 67 138 16 77 30 103 103 193 63 77 140 195 172
263 14 30 26 39 58 48 151 38 258 80 285 112 13 16 18 15 120 -20z"/>
<path d="M34410 16566 c-74 -28 -179 -103 -252 -181 -40 -44 -159 -174 -263
-290 -105 -115 -256 -275 -337 -356 -118 -117 -153 -159 -181 -215 -49 -97
-92 -134 -222 -190 -98 -43 -121 -58 -209 -139 -321 -293 -330 -298 -851 -480
-82 -29 -171 -62 -197 -73 -58 -26 -239 -80 -423 -126 -77 -20 -162 -47 -190
-60 -46 -22 -177 -68 -420 -146 -130 -42 -404 -149 -481 -188 -84 -43 -309
-193 -444 -298 -63 -49 -176 -150 -252 -225 -122 -121 -142 -146 -172 -213
-48 -105 -84 -155 -205 -281 -112 -116 -150 -175 -230 -354 -23 -52 -56 -135
-72 -184 l-30 -89 12 -154 c13 -154 13 -154 -14 -262 -38 -153 -35 -231 15
-364 23 -60 45 -77 197 -150 97 -47 156 -82 182 -109 36 -37 41 -39 101 -39
35 0 100 7 146 16 73 15 94 15 167 4 97 -15 221 -8 265 15 42 22 58 60 72 169
18 147 11 156 -137 184 -27 5 -82 21 -122 36 l-72 26 -56 -21 c-37 -14 -65
-33 -85 -58 l-30 -37 -87 28 c-151 49 -176 76 -186 200 -4 39 -24 120 -48 190
-24 73 -43 150 -46 189 -5 62 -4 67 25 100 20 23 39 64 56 124 15 50 40 133
56 185 16 52 37 135 45 185 28 156 42 176 247 362 25 23 81 87 123 143 85 112
145 162 290 241 56 30 124 79 180 130 71 63 116 94 210 141 98 50 132 73 185
127 58 59 76 71 160 103 117 44 319 100 465 129 190 37 370 100 464 163 29 20
57 36 63 36 5 0 20 8 33 18 20 16 31 17 72 9 43 -9 53 -7 98 16 28 14 161 55
295 92 285 77 399 118 529 187 86 45 96 48 107 33 15 -20 7 -52 -47 -188 -22
-53 -39 -109 -39 -123 0 -14 -38 -98 -83 -187 -46 -89 -87 -182 -91 -206 -13
-85 -45 -127 -176 -231 -90 -72 -98 -83 -420 -630 -56 -96 -110 -183 -118
-193 -9 -10 -42 -32 -74 -49 -54 -29 -98 -77 -98 -108 0 -6 -32 -59 -71 -118
-39 -58 -104 -172 -144 -252 -102 -203 -164 -305 -250 -413 -79 -98 -130 -186
-189 -331 -84 -202 -166 -329 -331 -510 -89 -97 -133 -155 -184 -244 -156
-270 -345 -566 -462 -722 -66 -89 -139 -208 -249 -407 -56 -101 -82 -135 -181
-238 -133 -138 -163 -182 -318 -465 -147 -268 -385 -627 -461 -695 -13 -11
-31 -40 -42 -64 -27 -63 -159 -225 -343 -421 -132 -140 -209 -249 -291 -413
-26 -50 -70 -122 -99 -158 -72 -90 -214 -228 -304 -297 -80 -62 -365 -321
-661 -602 -214 -202 -256 -238 -443 -383 -106 -81 -147 -120 -176 -164 -97
-148 -176 -201 -341 -228 -131 -22 -221 -66 -319 -160 -72 -69 -81 -75 -182
-108 -91 -30 -212 -60 -476 -119 -66 -14 -108 1 -233 83 -108 70 -154 94 -200
104 -52 11 -77 30 -84 67 -8 44 -39 93 -73 115 -20 13 -54 19 -136 23 -103 5
-110 7 -132 32 -13 15 -28 53 -35 85 -6 32 -23 101 -37 153 -14 52 -36 136
-50 185 -41 153 -54 253 -60 446 -7 217 10 467 38 578 12 46 61 162 124 291
57 118 118 251 135 295 66 169 137 255 312 378 53 37 114 87 136 112 41 44 46
57 57 168 3 32 13 73 22 90 45 89 259 310 408 424 178 135 405 263 465 263 54
0 182 -31 230 -55 48 -24 104 -80 114 -112 2 -10 14 -57 25 -106 23 -97 35
-125 93 -211 51 -75 67 -169 49 -288 -8 -54 -9 -83 -2 -97 14 -25 131 -131
145 -131 18 0 176 88 217 121 22 17 60 59 85 94 52 74 52 73 -12 215 -23 52
-52 133 -64 180 -21 82 -43 128 -179 365 -62 107 -174 220 -266 267 -108 56
-211 81 -347 86 -114 3 -118 3 -179 -29 -92 -46 -221 -128 -326 -206 -96 -72
-567 -508 -739 -684 -103 -107 -114 -126 -114 -204 0 -27 -15 -51 -86 -132
-149 -169 -258 -334 -353 -533 -71 -151 -107 -262 -127 -395 -9 -55 -22 -129
-30 -165 -8 -36 -23 -119 -34 -184 -28 -164 -45 -226 -69 -242 -51 -36 -58
-165 -22 -459 12 -104 32 -229 42 -278 11 -48 29 -156 40 -240 34 -255 40
-276 134 -427 29 -47 61 -112 71 -145 17 -54 28 -69 120 -158 123 -119 200
-180 276 -218 106 -53 147 -59 439 -59 l267 0 250 54 c172 37 272 63 316 84
35 16 90 38 122 47 135 39 250 118 464 318 77 73 198 179 268 236 346 284 749
647 856 772 223 259 803 1018 887 1159 77 130 188 271 314 398 117 117 127
131 205 275 106 194 113 204 418 605 275 361 379 510 487 698 38 66 105 173
149 239 145 217 186 293 186 344 1 63 31 128 64 137 53 13 161 156 293 390 45
78 110 179 146 226 80 106 111 158 137 232 22 64 67 131 130 191 23 22 58 72
77 110 53 105 112 191 192 280 92 101 149 187 234 350 55 107 95 165 223 325
238 298 312 410 330 505 5 26 25 60 59 101 82 97 133 177 211 335 49 99 99
181 152 250 43 57 130 181 192 274 139 209 184 268 280 370 70 74 77 86 98
160 53 190 156 330 287 391 61 29 78 44 136 116 91 114 143 197 159 255 11 37
27 60 71 100 43 41 70 79 114 164 32 61 76 132 97 157 56 67 98 142 163 289
98 222 172 334 263 397 23 16 42 36 42 45 0 9 23 44 51 76 60 71 75 98 88 156
9 37 8 46 -6 57 -21 15 -98 14 -143 -2z"/>
<path d="M40000 15861 c-25 -9 -82 -41 -128 -70 -86 -56 -166 -91 -206 -91
-12 0 -31 -9 -42 -21 -35 -38 -177 -126 -314 -193 -164 -80 -256 -150 -318
-243 -58 -86 -109 -136 -269 -260 -70 -55 -175 -149 -233 -210 -189 -197 -370
-435 -395 -518 -19 -67 -73 -148 -220 -335 -205 -259 -270 -366 -281 -458 -13
-104 -56 -202 -182 -412 -41 -69 -108 -174 -149 -233 -65 -95 -78 -121 -104
-215 -56 -198 -192 -519 -299 -702 -21 -36 -50 -105 -65 -155 -15 -49 -35
-106 -45 -126 -17 -32 -83 -101 -107 -110 -5 -2 -33 -49 -62 -103 -29 -55 -76
-136 -106 -180 -29 -45 -69 -117 -89 -160 -47 -103 -96 -165 -173 -222 -74
-55 -111 -99 -159 -189 -53 -102 -214 -323 -285 -391 -105 -100 -223 -180
-373 -254 -85 -42 -188 -104 -261 -156 -66 -47 -141 -97 -168 -110 -26 -14
-105 -61 -175 -106 -229 -146 -293 -176 -449 -208 -161 -33 -206 -49 -371
-136 -67 -36 -164 -81 -215 -100 -115 -44 -338 -108 -435 -124 -77 -13 -89
-22 -78 -64 14 -56 156 -155 224 -156 38 0 476 120 662 182 72 24 196 78 290
126 235 120 281 146 331 193 58 54 101 75 213 104 140 36 199 61 278 118 57
42 86 73 144 157 90 129 128 163 213 191 36 12 82 30 100 41 30 17 155 68 167
68 2 0 4 -16 4 -35 0 -40 -122 -293 -197 -410 -29 -43 -125 -150 -259 -286
-148 -150 -214 -223 -214 -238 0 -14 -28 -52 -76 -102 -86 -90 -86 -90 -36
-202 38 -87 56 -97 171 -97 53 1 127 7 165 14 79 15 100 33 116 99 5 23 21 65
35 92 14 28 44 101 66 164 25 72 64 155 104 221 35 59 69 119 74 133 8 20 30
37 78 60 64 31 67 34 78 80 15 60 68 117 145 155 30 16 85 45 121 65 139 78
292 73 419 -13 32 -22 64 -40 70 -40 28 0 71 -34 95 -73 29 -50 32 -102 9
-135 -11 -16 -14 -34 -10 -57 9 -47 87 -200 131 -257 19 -26 35 -57 35 -70 0
-44 50 -126 111 -182 65 -60 127 -86 208 -86 84 0 315 21 398 36 61 11 92 12
120 5 32 -9 58 -5 185 29 165 45 356 111 407 141 53 31 253 186 421 326 85 71
187 150 226 175 63 40 74 53 101 109 32 67 189 258 242 294 16 11 58 42 93 69
34 27 125 79 201 117 154 75 170 76 199 18 39 -75 13 -202 -83 -402 -62 -129
-70 -152 -60 -173 6 -13 15 -24 21 -24 22 0 7 -40 -47 -126 -71 -113 -189
-356 -241 -499 -65 -177 -91 -347 -59 -387 21 -27 131 -61 181 -56 54 6 85 29
127 93 18 28 69 95 113 150 108 136 174 239 181 283 12 81 53 139 184 260 69
64 176 166 236 228 83 84 132 123 199 163 110 64 139 65 144 7 4 -45 -32 -156
-86 -261 -21 -42 -41 -100 -48 -145 -9 -51 -28 -105 -61 -169 l-48 -94 1 -101
c1 -133 22 -183 110 -265 115 -108 260 -157 434 -148 103 6 328 43 455 76 44
11 195 54 335 96 280 83 488 137 622 160 48 9 103 24 120 35 19 10 95 29 173
43 77 14 165 34 196 46 103 39 178 127 164 192 -10 43 -49 85 -98 104 l-42 16
-115 -54 c-134 -63 -212 -91 -434 -153 -88 -25 -196 -61 -239 -80 -62 -27 -82
-32 -98 -23 -28 15 -53 4 -85 -38 -19 -25 -52 -47 -109 -74 -201 -92 -313
-101 -448 -35 -125 61 -213 69 -298 26 -61 -31 -104 -25 -156 23 -28 25 -29
52 -2 170 11 50 26 128 34 173 16 100 35 138 120 239 94 112 268 344 297 396
51 91 73 325 37 402 -13 28 -14 28 -78 22 -115 -10 -204 -27 -258 -47 -98 -36
-446 -298 -549 -413 -52 -59 -90 -90 -163 -132 -53 -31 -116 -72 -140 -92 -33
-26 -43 -30 -37 -16 22 55 45 127 61 195 22 95 62 180 121 261 79 106 97 167
75 245 -7 25 -5 38 11 60 41 60 98 189 98 222 0 26 -8 42 -33 66 -18 17 -38
43 -45 59 -15 36 -43 45 -182 64 -204 27 -319 5 -402 -78 -26 -26 -101 -90
-165 -142 -65 -51 -154 -133 -197 -181 -44 -48 -143 -139 -220 -204 -78 -64
-197 -171 -266 -238 -285 -276 -808 -608 -1100 -699 l-56 -17 -38 26 c-21 14
-42 26 -47 26 -4 0 -54 -22 -111 -50 -79 -38 -122 -53 -182 -61 -44 -6 -97
-19 -118 -30 -80 -41 -209 -17 -305 57 -42 32 -42 55 -1 147 23 52 30 84 29
117 -8 133 -8 131 42 215 40 66 47 86 44 116 -6 47 -33 102 -66 138 -15 16
-33 48 -40 72 -29 95 -106 176 -228 236 -69 34 -76 36 -147 30 -77 -6 -112
-18 -133 -48 -7 -9 -32 -26 -55 -38 -24 -11 -84 -57 -133 -101 -123 -110 -331
-237 -443 -271 -36 -10 -45 -10 -58 2 -12 13 -11 23 12 79 39 98 97 208 147
283 25 37 48 80 52 95 9 42 52 102 152 209 66 72 104 124 143 198 62 116 104
180 141 215 14 14 126 138 249 275 123 138 322 349 441 471 223 228 260 275
278 356 25 112 87 239 160 328 68 84 66 85 -14 15 -102 -90 -107 -95 -157
-190 -59 -113 -159 -208 -423 -405 -121 -90 -250 -193 -287 -229 -38 -35 -68
-58 -68 -51 0 7 15 58 34 114 59 176 165 387 306 606 37 58 118 206 180 329
119 240 186 345 300 481 40 47 79 100 86 118 8 19 55 92 104 163 50 71 90 138
90 150 0 48 26 102 76 161 30 33 61 82 70 107 9 25 21 58 26 73 6 15 41 62 79
105 75 85 109 143 109 189 1 79 70 157 246 278 102 69 194 152 194 175 0 5 17
30 39 56 21 26 62 87 91 136 42 72 78 113 186 218 183 177 290 246 414 266 25
4 74 22 110 40 93 47 108 50 131 29 28 -25 24 -64 -21 -197 -49 -145 -129
-304 -174 -344 -25 -24 -51 -74 -111 -219 -183 -445 -160 -402 -336 -624 -107
-136 -198 -268 -239 -349 -12 -24 -97 -128 -189 -230 -92 -102 -182 -208 -201
-236 -48 -71 -180 -230 -303 -366 l-105 -116 79 30 c88 33 142 79 160 136 37
114 79 160 182 201 173 68 409 303 567 566 36 59 86 130 111 158 142 157 348
502 459 769 40 97 85 165 190 287 104 122 135 154 204 214 76 65 131 178 185
381 45 170 54 197 80 234 10 14 21 51 25 82 6 51 5 59 -18 87 -15 16 -26 40
-26 53 0 33 -44 124 -74 154 -31 31 -88 33 -156 6z"/>
<path d="M55450 15861 c-25 -9 -82 -41 -128 -70 -86 -56 -166 -91 -206 -91
-12 0 -31 -9 -42 -21 -35 -38 -177 -126 -314 -193 -164 -80 -256 -150 -318
-243 -58 -86 -109 -136 -269 -260 -70 -55 -175 -149 -233 -210 -189 -197 -370
-435 -395 -518 -19 -67 -73 -148 -220 -335 -205 -259 -270 -366 -281 -458 -13
-104 -56 -202 -182 -412 -41 -69 -108 -174 -149 -233 -65 -95 -78 -121 -104
-215 -56 -198 -192 -519 -299 -702 -21 -36 -50 -105 -65 -155 -15 -49 -35
-106 -45 -126 -17 -32 -83 -101 -107 -110 -5 -2 -33 -49 -62 -103 -29 -55 -76
-136 -106 -180 -29 -45 -69 -117 -89 -160 -47 -103 -96 -165 -173 -222 -74
-55 -111 -99 -159 -189 -53 -102 -214 -323 -285 -391 -105 -100 -223 -180
-373 -254 -85 -42 -188 -104 -261 -156 -66 -47 -141 -97 -168 -110 -26 -14
-105 -61 -175 -106 -229 -146 -293 -176 -449 -208 -161 -33 -206 -49 -371
-136 -189 -100 -391 -170 -622 -218 l-105 -21 -1 -35 c0 -32 -4 -36 -55 -58
-133 -59 -304 -123 -366 -138 -62 -15 -71 -15 -105 -1 -26 11 -43 28 -59 59
-41 83 -60 91 -139 63 -52 -18 -104 -8 -144 30 -25 23 -26 27 -26 144 0 77 5
134 14 158 7 21 19 67 25 102 7 36 26 91 42 123 32 64 156 208 286 332 86 81
127 136 185 246 19 36 46 78 60 93 14 15 43 60 64 100 21 40 59 99 85 132 102
132 164 239 229 397 35 86 93 159 149 188 41 20 96 78 123 128 23 44 130 119
195 138 60 17 144 14 275 -10 l67 -13 33 35 33 34 110 -5 c80 -4 133 -13 194
-32 76 -24 89 -26 145 -16 122 21 266 24 346 8 41 -9 107 -19 145 -22 46 -5
98 -19 150 -42 96 -41 172 -54 181 -30 8 21 -10 52 -65 110 -55 59 -96 81
-181 98 -36 7 -94 23 -129 36 -111 41 -301 83 -426 93 -66 6 -203 24 -305 40
-171 27 -191 29 -267 18 -54 -8 -97 -9 -130 -2 l-48 9 3 40 c6 69 51 185 121
310 63 111 121 238 121 265 0 20 41 94 78 140 111 139 281 319 374 396 83 70
118 88 189 98 40 6 49 11 60 38 17 41 114 172 184 248 108 118 154 212 163
334 5 75 4 79 -14 72 -70 -29 -128 -46 -190 -54 -44 -6 -97 -23 -140 -43 -57
-29 -69 -39 -74 -64 -8 -36 -61 -143 -92 -185 -12 -17 -42 -37 -67 -47 -71
-26 -88 -40 -145 -122 -70 -99 -99 -149 -213 -366 -162 -307 -339 -548 -615
-840 -46 -50 -96 -111 -111 -137 -15 -26 -45 -69 -67 -95 -22 -26 -56 -67 -76
-90 -40 -48 -56 -52 -144 -28 -82 22 -121 19 -326 -26 l-186 -41 -64 16 c-84
21 -120 20 -335 -9 -101 -14 -187 -25 -191 -25 -17 0 -81 -66 -101 -104 -18
-35 -22 -57 -22 -144 0 -101 1 -104 28 -128 21 -18 40 -24 76 -24 71 0 156 17
251 51 47 17 132 41 190 54 58 13 173 43 255 68 145 43 315 70 315 50 0 -5
-20 -28 -44 -52 -30 -29 -46 -55 -51 -80 -10 -55 -80 -193 -123 -242 -22 -24
-51 -63 -66 -87 -14 -23 -51 -71 -80 -106 -30 -35 -96 -117 -147 -182 -51 -65
-105 -128 -119 -139 -13 -11 -47 -45 -75 -75 -184 -205 -269 -268 -428 -320
-50 -16 -71 -28 -77 -45 -14 -36 -89 -94 -180 -137 -47 -22 -99 -47 -116 -55
-18 -8 -36 -25 -42 -36 -6 -15 -45 -37 -113 -67 -67 -29 -146 -76 -226 -133
-95 -68 -156 -102 -271 -151 -179 -78 -514 -181 -718 -222 -30 -5 -37 -30 -19
-63 31 -61 147 -131 217 -131 53 0 381 93 517 147 64 25 170 71 236 102 109
52 133 68 255 177 74 67 142 129 150 138 8 10 39 34 70 53 94 60 180 134 220
189 37 49 44 54 132 83 52 17 118 47 148 67 l55 37 -31 -34 c-16 -19 -79 -88
-140 -154 -228 -249 -291 -334 -318 -425 -15 -54 -49 -111 -136 -230 -54 -74
-74 -156 -68 -276 6 -106 20 -134 94 -183 84 -55 150 -54 368 9 160 46 227 56
278 42 22 -6 52 -7 75 -2 21 5 92 14 158 20 173 17 278 37 375 71 147 53 237
77 418 115 149 30 332 83 552 159 25 9 115 39 200 67 104 34 209 79 320 136
236 120 281 147 331 193 58 54 101 75 213 104 140 36 199 61 278 118 57 42 86
73 144 157 90 129 128 163 213 191 36 12 82 30 100 41 30 17 155 68 167 68 2
0 4 -16 4 -35 0 -40 -122 -293 -197 -410 -29 -43 -125 -150 -259 -286 -148
-150 -214 -223 -214 -238 0 -14 -28 -52 -76 -102 -86 -90 -86 -90 -36 -202 38
-87 56 -97 171 -97 53 1 127 7 165 14 79 15 100 33 116 99 5 23 21 65 35 92
14 28 44 101 66 164 25 72 64 155 104 221 35 59 69 119 74 133 8 20 30 37 78
60 64 31 67 34 78 80 15 60 68 117 145 155 30 16 85 45 121 65 139 78 292 73
419 -13 32 -22 64 -40 70 -40 28 0 71 -34 95 -73 29 -50 32 -102 9 -135 -11
-16 -14 -34 -10 -57 9 -47 87 -200 131 -257 19 -26 35 -57 35 -70 0 -44 50
-126 111 -182 65 -60 127 -86 208 -86 67 0 295 19 373 31 55 9 71 8 97 -5 55
-29 96 -21 336 67 83 31 186 62 230 71 44 8 143 27 220 41 77 14 189 40 249
56 144 41 315 51 397 24 68 -22 75 -28 99 -83 11 -25 52 -89 90 -143 117 -164
215 -218 405 -227 225 -9 668 59 980 152 44 14 120 33 168 45 98 23 250 81
278 107 11 10 19 25 19 34 0 42 -94 95 -211 119 -52 11 -66 10 -170 -19 -63
-17 -152 -35 -199 -39 -95 -8 -197 -49 -257 -102 -18 -15 -51 -33 -74 -39 -50
-14 -236 -30 -347 -30 l-83 0 -99 65 c-59 39 -110 82 -129 107 -35 48 -61 123
-61 179 0 36 2 37 59 59 298 111 661 484 791 812 48 119 64 150 116 213 l45
56 -17 51 c-19 57 -15 108 16 206 33 105 25 143 -47 223 -72 80 -108 85 -256
35 -91 -31 -124 -36 -307 -51 -342 -27 -447 -50 -557 -122 -62 -41 -102 -88
-142 -169 -32 -65 -48 -81 -138 -143 -67 -46 -104 -93 -123 -156 -7 -22 -24
-55 -38 -72 -77 -102 -68 -267 28 -533 89 -247 84 -229 65 -250 -20 -22 -81
-37 -190 -45 -44 -3 -105 -12 -135 -20 -30 -8 -179 -37 -330 -65 -151 -28
-316 -65 -366 -81 l-92 -30 -37 26 c-21 14 -41 25 -46 25 -4 0 -54 -22 -111
-50 -79 -38 -122 -53 -182 -61 -44 -6 -97 -19 -118 -30 -80 -41 -209 -17 -305
57 -42 32 -42 55 -1 147 23 52 30 84 29 117 -8 133 -8 131 42 215 40 66 47 86
44 116 -6 47 -33 102 -66 138 -15 16 -33 48 -40 72 -29 95 -106 176 -228 236
-69 34 -76 36 -147 30 -77 -6 -112 -18 -133 -48 -7 -9 -32 -26 -55 -38 -24
-11 -84 -57 -133 -101 -123 -110 -331 -237 -443 -271 -36 -10 -45 -10 -58 2
-12 13 -11 23 12 79 39 98 97 208 147 283 25 37 48 80 52 95 9 42 52 102 152
209 66 72 104 124 143 198 62 116 104 180 141 215 14 14 126 138 249 275 123
138 322 349 441 471 223 228 260 275 278 356 25 112 87 239 160 328 68 84 66
85 -14 15 -102 -90 -107 -95 -157 -190 -59 -113 -159 -208 -423 -405 -121 -90
-250 -193 -287 -229 -38 -35 -68 -58 -68 -51 0 7 15 58 34 114 59 176 165 387
306 606 37 58 118 206 180 329 119 240 186 345 300 481 40 47 79 100 86 118 8
19 55 92 104 163 50 71 90 138 90 150 0 48 26 102 76 161 30 33 61 82 70 107
9 25 21 58 26 73 6 15 41 62 79 105 75 85 109 143 109 189 1 79 70 157 246
278 102 69 194 152 194 175 0 5 17 30 39 56 21 26 62 87 91 136 42 72 78 113
186 218 183 177 290 246 414 266 25 4 74 22 110 40 93 47 108 50 131 29 28
-25 24 -64 -21 -197 -49 -145 -129 -304 -174 -344 -25 -24 -51 -74 -111 -219
-183 -445 -160 -402 -336 -624 -107 -136 -198 -268 -239 -349 -12 -24 -97
-128 -189 -230 -92 -102 -182 -208 -201 -236 -48 -71 -180 -230 -303 -366
l-105 -116 79 30 c88 33 142 79 160 136 37 114 79 160 182 201 173 68 409 303
567 566 36 59 86 130 111 158 142 157 348 502 459 769 40 97 85 165 190 287
104 122 135 154 204 214 76 65 131 178 185 381 45 170 54 197 80 234 10 14 21
51 25 82 6 51 5 59 -18 87 -15 16 -26 40 -26 53 0 33 -44 124 -74 154 -31 31
-88 33 -156 6z m371 -5304 l33 -22 -2 -165 c-3 -149 -6 -170 -27 -218 -28 -61
-108 -149 -176 -192 -32 -21 -58 -49 -77 -84 -46 -80 -79 -114 -146 -148 -33
-17 -134 -71 -223 -119 -199 -110 -210 -114 -241 -97 -60 32 -76 129 -43 257
21 79 25 86 186 316 62 88 123 179 136 202 18 31 33 44 62 53 21 6 95 50 164
97 209 142 284 167 354 120z"/>
<path d="M23521 13489 c-25 -11 -76 -24 -115 -30 -123 -19 -246 -74 -246 -111
0 -23 -59 -144 -92 -188 -12 -17 -42 -37 -67 -47 -71 -26 -88 -40 -145 -122
-70 -99 -99 -149 -213 -366 -162 -307 -339 -548 -615 -840 -46 -50 -96 -111
-111 -137 -15 -26 -45 -69 -67 -95 -22 -26 -56 -67 -76 -90 -40 -48 -56 -52
-144 -28 -82 22 -121 19 -326 -26 l-186 -41 -64 16 c-84 21 -120 20 -335 -9
-101 -14 -187 -25 -191 -25 -17 0 -81 -66 -101 -104 -18 -35 -22 -57 -22 -144
0 -101 1 -104 28 -128 21 -18 40 -24 76 -24 71 0 156 17 251 51 47 17 132 41
190 54 58 13 173 43 255 68 145 43 315 70 315 50 0 -5 -20 -28 -44 -52 -30
-29 -46 -55 -51 -80 -10 -55 -80 -193 -123 -242 -22 -24 -51 -63 -66 -87 -14
-23 -51 -71 -80 -106 -30 -35 -96 -117 -147 -182 -51 -65 -105 -128 -119 -139
-13 -11 -47 -45 -75 -75 -184 -205 -269 -268 -428 -320 -50 -16 -71 -28 -77
-45 -14 -36 -89 -94 -180 -137 -47 -22 -99 -47 -116 -55 -18 -8 -36 -25 -42
-36 -6 -15 -45 -37 -113 -67 -66 -29 -146 -76 -225 -132 -137 -98 -316 -185
-358 -174 -16 4 -57 -10 -137 -48 -108 -51 -286 -108 -443 -140 -38 -8 -72
-20 -76 -25 -3 -6 -31 -19 -60 -30 -30 -10 -81 -31 -113 -45 -46 -21 -62 -24
-78 -16 -28 16 -53 5 -85 -37 -19 -25 -52 -47 -109 -74 -202 -93 -312 -102
-446 -36 -127 62 -214 70 -300 27 -61 -31 -104 -25 -156 23 -28 25 -29 52 -2
170 11 50 26 128 34 173 16 100 35 138 120 239 94 112 268 344 297 396 51 91
73 325 37 402 -13 28 -14 28 -78 22 -115 -10 -204 -27 -258 -47 -98 -36 -446
-298 -549 -413 -52 -59 -90 -90 -163 -132 -53 -31 -116 -72 -140 -92 -33 -26
-43 -30 -37 -16 22 55 45 127 61 195 22 95 62 180 121 261 79 106 97 167 75
245 -7 25 -5 38 11 60 41 60 98 189 98 222 0 26 -8 42 -33 66 -18 17 -38 43
-45 59 -15 36 -43 45 -182 64 -204 27 -319 5 -402 -78 -26 -26 -101 -90 -165
-142 -65 -51 -154 -133 -197 -181 -44 -48 -143 -139 -220 -204 -78 -64 -197
-171 -266 -238 -172 -166 -419 -347 -692 -507 -210 -124 -469 -227 -569 -227
-36 0 -71 -8 -106 -24 -29 -14 -74 -28 -100 -32 -54 -7 -73 -19 -73 -43 0 -11
-14 -20 -46 -27 l-46 -11 5 49 c5 42 2 54 -21 89 -24 35 -31 39 -59 35 -31 -5
-33 -3 -33 27 0 83 19 146 64 214 26 39 64 120 91 191 52 143 68 176 93 194
36 25 53 67 81 200 16 74 36 152 45 173 16 38 16 40 -12 84 -32 53 -84 91
-123 91 -49 0 -127 -21 -153 -41 -13 -10 -62 -74 -107 -142 -90 -133 -181
-234 -274 -305 -33 -25 -98 -82 -145 -128 -68 -65 -103 -90 -170 -122 -47 -22
-110 -61 -140 -87 -66 -57 -141 -95 -192 -95 -51 0 -82 -14 -157 -69 -69 -51
-154 -86 -281 -116 -41 -10 -92 -26 -112 -36 -20 -11 -82 -28 -136 -38 -102
-20 -325 -88 -397 -121 -77 -35 -291 -118 -370 -143 -139 -43 -210 -51 -301
-32 -82 16 -114 33 -147 77 -18 24 -19 33 -10 90 10 55 9 67 -7 93 -20 33 -16
48 25 95 12 14 34 62 48 108 53 163 133 306 298 528 l75 100 43 168 c23 92 40
174 37 182 -9 22 -44 17 -89 -15 -23 -15 -59 -36 -80 -46 -35 -16 -81 -65
-105 -110 -5 -11 -33 -87 -62 -170 -28 -82 -61 -165 -72 -182 -10 -18 -66 -71
-122 -117 -166 -136 -235 -220 -277 -335 -31 -83 -112 -138 -240 -165 -97 -20
-249 -32 -249 -19 0 5 11 24 25 43 41 55 32 77 -49 117 -33 17 -41 27 -52 69
l-13 49 65 132 c91 187 160 265 296 334 55 29 105 61 112 73 8 11 17 45 20 75
11 84 36 123 128 192 46 34 104 81 129 105 85 77 244 141 384 153 116 10 180
39 170 78 -8 32 -34 73 -47 73 -6 0 -36 -6 -67 -14 -31 -8 -85 -17 -121 -21
-36 -3 -99 -20 -140 -37 -150 -61 -172 -68 -235 -77 -37 -6 -91 -23 -127 -41
-88 -45 -246 -154 -360 -249 -53 -45 -105 -81 -114 -81 -10 0 -66 -49 -124
-108 -122 -125 -149 -148 -285 -229 -55 -33 -139 -85 -186 -115 -48 -30 -116
-65 -150 -78 -65 -24 -138 -64 -197 -108 -25 -19 -64 -30 -178 -49 -153 -25
-187 -38 -262 -98 -36 -29 -52 -35 -90 -35 -32 0 -110 -21 -237 -64 -104 -36
-271 -86 -370 -111 -98 -25 -183 -49 -188 -54 -17 -17 3 -62 47 -104 104 -101
208 -118 332 -55 42 22 122 49 200 68 71 17 149 41 174 52 25 11 224 96 443
189 219 93 412 176 429 185 16 8 32 13 35 10 6 -6 -52 -73 -125 -144 -77 -76
-87 -111 -87 -302 0 -91 4 -186 8 -211 8 -46 8 -47 80 -77 185 -77 297 -93
411 -57 48 15 86 40 190 127 135 112 201 152 301 185 113 38 110 38 124 -10 7
-23 26 -63 43 -89 78 -123 190 -167 497 -193 97 -8 192 -17 213 -21 24 -4 74
5 155 26 189 51 451 127 547 160 92 31 132 37 138 21 2 -5 36 4 77 20 41 17
112 41 158 54 101 30 260 109 406 204 151 99 229 159 405 310 84 72 165 137
180 145 15 8 78 30 140 49 129 40 122 46 75 -68 -14 -33 -29 -79 -33 -102 -17
-77 -36 -111 -78 -132 -50 -25 -78 -60 -86 -106 -4 -20 -24 -63 -46 -96 -66
-102 -128 -304 -117 -376 19 -115 147 -160 374 -134 78 9 150 28 308 81 113
38 253 78 311 90 118 23 188 49 392 144 77 37 143 66 146 66 3 0 31 10 62 21
65 25 249 159 484 356 85 71 187 150 226 175 63 40 74 53 101 109 32 67 189
258 242 294 16 11 58 42 93 69 34 27 125 79 201 117 154 75 170 76 199 18 39
-75 13 -202 -83 -402 -62 -129 -70 -152 -60 -173 6 -13 15 -24 21 -24 22 0 7
-40 -47 -126 -71 -113 -189 -356 -241 -499 -65 -177 -91 -347 -59 -387 21 -27
131 -61 181 -56 54 6 85 29 127 93 18 28 69 95 113 150 108 136 174 239 181
283 12 81 53 139 184 260 69 64 176 166 236 228 83 84 132 123 199 163 110 64
139 65 144 7 4 -45 -32 -156 -86 -261 -21 -42 -41 -100 -48 -145 -9 -51 -28
-105 -61 -169 l-48 -94 1 -101 c1 -133 22 -183 110 -265 115 -108 260 -157
434 -148 103 6 328 43 455 76 44 11 195 54 335 96 280 84 488 137 623 161 49
8 96 19 105 24 25 13 158 47 232 60 77 13 152 36 200 60 19 10 91 42 160 71
228 95 268 119 412 247 73 65 140 127 148 136 8 10 39 34 70 53 94 60 180 134
220 189 37 49 44 54 132 83 52 17 118 47 148 67 l55 37 -31 -34 c-16 -19 -79
-88 -140 -154 -228 -249 -291 -334 -318 -425 -15 -54 -49 -111 -136 -230 -54
-74 -74 -156 -68 -276 6 -106 20 -134 94 -183 84 -55 150 -54 368 9 160 46
227 56 278 42 22 -6 52 -7 75 -2 21 5 92 14 158 20 173 17 278 37 375 71 147
53 236 77 413 113 95 20 251 61 347 92 243 78 251 81 284 107 28 23 28 24 13
54 -17 32 -64 72 -130 112 -32 19 -47 22 -86 17 -75 -10 -223 -63 -523 -190
-279 -116 -392 -159 -459 -171 -55 -10 -103 15 -130 67 -41 83 -60 91 -139 63
-52 -18 -104 -8 -144 30 -25 23 -26 27 -26 144 0 77 5 134 14 158 7 21 19 67
25 102 7 36 26 91 42 123 32 64 156 208 286 332 86 81 127 136 185 246 19 36
46 78 60 93 14 15 43 60 64 100 21 40 59 99 85 132 102 132 164 239 229 397
35 86 93 159 149 188 41 20 96 78 123 128 23 44 130 119 195 138 60 17 144 14
275 -10 l67 -13 33 35 33 34 110 -5 c80 -4 133 -13 194 -32 76 -24 89 -26 145
-16 122 21 266 24 346 8 41 -9 107 -19 145 -22 46 -5 98 -19 150 -42 96 -41
172 -54 181 -30 8 21 -10 52 -65 110 -55 59 -96 81 -181 98 -36 7 -94 23 -129
36 -111 41 -301 83 -426 93 -66 6 -203 24 -305 40 -171 27 -191 29 -267 18
-54 -8 -97 -9 -130 -2 l-48 9 3 40 c6 69 51 185 121 310 63 111 121 238 121
265 0 20 41 94 78 140 111 139 281 319 374 396 83 70 118 88 189 98 40 6 49
11 60 38 17 41 114 172 184 248 63 69 114 145 139 210 20 49 34 200 20 199 -5
0 -29 -9 -53 -20z"/>
<path d="M15222 12644 c-18 -9 -46 -36 -62 -59 -36 -52 -86 -97 -128 -114 -37
-15 -48 -54 -38 -129 8 -61 34 -95 79 -104 19 -4 66 -23 102 -43 37 -19 80
-35 95 -35 16 0 77 25 137 56 127 65 181 117 213 202 l21 57 -28 23 c-154 127
-312 186 -391 146z"/>
<path d="M74002 12644 c-18 -9 -46 -36 -62 -59 -36 -52 -86 -97 -128 -114 -37
-15 -48 -54 -38 -129 8 -61 34 -95 79 -104 19 -4 66 -23 102 -43 37 -19 80
-35 95 -35 16 0 77 25 137 56 127 65 181 117 213 202 l21 57 -28 23 c-154 127
-312 186 -391 146z"/>
<path d="M80862 12644 c-18 -9 -46 -36 -62 -59 -36 -52 -86 -97 -128 -114 -37
-15 -48 -54 -38 -129 8 -61 34 -95 79 -104 19 -4 66 -23 102 -43 37 -19 80
-35 95 -35 16 0 77 25 137 56 127 65 181 117 213 202 l21 57 -28 23 c-154 127
-312 186 -391 146z"/>
<path d="M87050 10895 c-85 -30 -118 -35 -300 -50 -343 -27 -447 -50 -557
-122 -62 -41 -102 -88 -142 -169 -32 -65 -48 -81 -138 -143 -67 -46 -104 -93
-123 -156 -7 -22 -24 -55 -38 -72 -77 -102 -68 -267 28 -533 89 -247 84 -229
65 -250 -20 -22 -81 -37 -190 -45 -44 -3 -105 -12 -135 -20 -30 -7 -165 -35
-300 -60 -207 -39 -251 -45 -281 -36 -34 10 -45 7 -150 -43 -133 -62 -211 -90
-433 -152 -88 -25 -196 -61 -239 -80 -62 -27 -82 -32 -98 -23 -28 15 -53 4
-85 -38 -19 -25 -52 -47 -109 -74 -202 -93 -312 -102 -446 -36 -127 62 -214
70 -300 27 -61 -31 -104 -25 -156 23 -28 25 -29 52 -2 170 11 50 26 128 34
173 16 100 35 138 120 239 94 112 268 344 297 396 51 91 73 325 37 402 -13 28
-14 28 -78 22 -115 -10 -204 -27 -258 -47 -98 -36 -446 -298 -549 -413 -52
-59 -90 -90 -163 -132 -53 -31 -116 -72 -140 -92 -33 -26 -43 -30 -37 -16 22
55 45 127 61 195 22 95 62 180 121 261 79 106 97 167 75 245 -7 25 -5 38 11
60 41 60 98 189 98 222 0 26 -8 42 -33 66 -18 17 -38 43 -45 59 -15 36 -43 45
-182 64 -204 27 -319 5 -402 -78 -26 -26 -101 -90 -165 -142 -65 -51 -154
-133 -197 -181 -44 -48 -143 -139 -220 -204 -78 -64 -197 -171 -266 -238 -361
-349 -1024 -734 -1266 -734 -42 0 -75 -8 -113 -25 -29 -14 -72 -28 -95 -31
-49 -8 -66 -20 -66 -45 0 -13 -7 -19 -24 -19 -14 0 -37 -5 -52 -10 l-27 -11 6
51 c5 44 3 56 -21 91 -24 35 -31 39 -59 35 -31 -5 -33 -3 -33 27 0 83 19 146
64 214 26 39 64 120 91 191 52 143 68 176 93 194 36 25 53 67 81 200 16 74 36
152 45 173 16 38 16 40 -12 84 -32 53 -84 91 -123 91 -49 0 -127 -21 -153 -41
-13 -10 -62 -74 -107 -142 -90 -133 -181 -234 -274 -305 -33 -25 -98 -82 -145
-128 -68 -65 -103 -90 -170 -122 -47 -22 -110 -61 -140 -87 -66 -57 -141 -95
-192 -95 -51 0 -82 -13 -157 -69 -76 -55 -116 -72 -261 -111 -58 -16 -118 -33
-135 -38 -16 -6 -52 -15 -79 -22 -27 -6 -63 -21 -80 -33 -22 -15 -52 -24 -106
-28 -48 -5 -94 -16 -130 -33 -30 -14 -66 -26 -80 -26 -14 0 -35 -6 -46 -14
-37 -26 -104 -29 -209 -7 -55 11 -112 24 -126 29 -42 16 -89 62 -113 111 -13
25 -34 55 -46 66 -32 29 -68 106 -92 193 -29 110 -36 375 -14 493 17 89 21
216 8 235 -4 7 -38 26 -77 44 -60 27 -78 31 -124 26 -71 -7 -139 -42 -236
-121 -91 -75 -124 -110 -238 -250 -44 -55 -119 -141 -166 -190 -47 -50 -105
-113 -128 -141 l-43 -52 20 -25 c11 -14 20 -30 20 -36 0 -18 -52 -38 -116 -44
-34 -4 -74 -12 -89 -19 -23 -10 -26 -17 -22 -45 5 -28 -7 -51 -95 -185 -147
-223 -180 -260 -257 -283 l-24 -7 7 108 c12 205 27 306 52 356 27 54 31 120 9
158 -21 37 -18 78 9 124 28 48 170 493 186 584 10 59 8 88 -16 209 -8 42 -53
82 -110 99 -53 15 -56 15 -197 -20 -78 -20 -157 -36 -174 -36 -75 0 -205 -74
-250 -141 -15 -22 -40 -47 -57 -56 -17 -9 -78 -64 -136 -123 -94 -95 -374
-330 -430 -360 -12 -6 -58 -45 -102 -86 -45 -41 -106 -88 -137 -106 -31 -17
-75 -49 -98 -70 l-43 -38 -94 0 c-95 0 -126 -11 -126 -44 0 -10 -118 -77 -368
-208 -40 -21 -84 -38 -96 -38 -43 0 -211 -48 -276 -79 -36 -17 -77 -31 -93
-31 -24 0 -27 3 -21 24 4 16 -3 36 -23 65 -25 37 -31 41 -60 37 -31 -5 -33 -3
-33 27 0 83 19 146 64 214 26 39 64 120 91 191 52 143 68 176 93 194 36 25 53
67 81 200 16 74 36 152 45 173 16 38 16 40 -12 84 -32 53 -84 91 -123 91 -49
0 -127 -21 -153 -41 -13 -10 -62 -74 -107 -142 -90 -133 -181 -234 -274 -305
-33 -25 -98 -82 -145 -128 -68 -65 -103 -90 -170 -122 -47 -22 -110 -61 -140
-87 -66 -57 -141 -95 -192 -95 -51 0 -82 -14 -157 -69 -71 -52 -134 -79 -263
-111 -46 -12 -119 -36 -163 -55 -108 -45 -219 -79 -345 -105 -58 -11 -115 -23
-126 -25 -73 -15 2 -127 121 -181 27 -12 68 -26 90 -30 22 -4 42 -10 45 -14 3
-4 38 5 79 22 41 16 112 40 158 53 101 30 260 109 406 204 151 99 229 159 405
310 84 72 165 137 180 145 15 8 78 30 140 49 129 40 122 46 75 -68 -14 -33
-29 -79 -33 -102 -17 -77 -36 -111 -78 -132 -50 -25 -78 -60 -86 -106 -4 -20
-24 -63 -46 -96 -66 -102 -128 -304 -117 -376 19 -115 147 -160 374 -134 78 9
150 28 308 81 113 38 253 78 311 90 190 38 513 185 514 234 0 13 220 137 300
169 105 43 244 131 320 202 108 102 153 135 267 203 56 33 144 90 195 127 l93
66 7 -163 c9 -196 20 -268 47 -305 36 -48 71 -212 81 -383 16 -255 31 -394 46
-417 8 -12 35 -35 61 -50 43 -25 57 -28 143 -28 102 0 185 20 244 59 18 12 80
94 146 192 226 335 330 459 530 629 69 59 148 129 175 155 28 26 74 60 103 74
69 35 229 73 244 58 16 -16 27 -87 28 -177 1 -99 13 -134 85 -244 31 -47 84
-132 117 -188 70 -120 132 -193 197 -231 45 -26 50 -27 196 -26 170 1 275 19
465 80 110 35 168 43 180 25 3 -5 38 4 79 21 41 16 112 40 158 53 101 30 260
109 406 204 151 99 229 159 405 310 84 72 165 137 180 145 15 8 78 30 140 49
129 40 122 46 75 -68 -14 -33 -29 -79 -33 -102 -17 -77 -36 -111 -78 -132 -50
-25 -78 -60 -86 -106 -4 -20 -24 -63 -46 -96 -66 -102 -128 -304 -117 -376 19
-115 147 -160 374 -134 78 9 150 28 308 81 113 38 253 78 311 90 112 22 193
51 351 126 54 25 141 61 193 81 52 19 110 43 129 54 53 31 252 186 421 326 85
71 187 150 226 175 63 40 74 53 101 109 32 67 189 258 242 294 16 11 58 42 93
69 34 27 125 79 201 117 154 75 170 76 199 18 39 -75 13 -202 -83 -402 -62
-129 -70 -152 -60 -173 6 -13 15 -24 21 -24 22 0 7 -40 -47 -126 -71 -113
-189 -356 -241 -499 -65 -177 -91 -347 -59 -387 21 -27 131 -61 181 -56 54 6
85 29 127 93 18 28 69 95 113 150 108 136 174 239 181 283 12 81 53 139 184
260 69 64 176 166 236 228 83 84 132 123 199 163 110 64 139 65 144 7 4 -45
-32 -156 -86 -261 -21 -42 -41 -100 -48 -145 -9 -51 -28 -105 -61 -169 l-48
-94 1 -101 c1 -133 22 -183 110 -265 115 -108 260 -157 434 -148 97 6 327 43
441 72 35 9 192 54 349 100 291 86 519 144 647 165 40 7 75 16 78 21 3 5 25 6
48 3 51 -7 106 7 302 79 83 31 186 62 230 71 44 8 143 27 220 41 77 14 189 40
249 56 144 41 315 51 397 24 68 -22 75 -28 99 -83 11 -25 52 -89 90 -143 117
-164 215 -218 405 -227 225 -9 668 59 980 152 44 14 120 33 168 45 98 23 250
81 278 107 11 10 19 25 19 34 0 42 -94 95 -211 119 -52 11 -66 10 -170 -19
-63 -17 -152 -35 -199 -39 -95 -8 -197 -49 -257 -102 -18 -15 -51 -33 -74 -39
-50 -14 -236 -30 -347 -30 l-83 0 -99 65 c-59 39 -110 82 -129 107 -35 48 -61
123 -61 179 0 36 2 37 59 59 298 111 661 484 791 812 48 119 64 150 116 213
l45 56 -17 51 c-19 57 -15 108 16 206 33 105 25 143 -47 223 -72 79 -116 85
-263 34z m51 -338 l33 -22 -2 -165 c-3 -149 -6 -170 -27 -218 -28 -61 -108
-149 -176 -192 -32 -21 -58 -49 -77 -84 -46 -80 -79 -114 -146 -148 -33 -17
-134 -71 -223 -119 -199 -110 -210 -114 -241 -97 -60 32 -76 129 -43 257 21
79 25 86 186 316 62 88 123 179 136 202 18 31 33 44 62 53 21 6 95 50 164 97
209 142 284 167 354 120z"/>
<path d="M33105 10616 c-120 -28 -248 -90 -370 -180 -38 -28 -144 -123 -235
-211 -185 -179 -347 -319 -555 -480 -77 -59 -169 -137 -206 -172 -53 -51 -79
-69 -140 -92 -42 -15 -96 -41 -120 -58 -86 -59 -165 -91 -286 -117 -111 -23
-155 -37 -318 -101 -187 -73 -319 -112 -542 -160 -32 -7 -30 -49 3 -93 34 -43
132 -108 179 -116 30 -6 84 9 298 80 144 48 269 93 277 100 9 7 61 31 117 54
128 51 226 106 405 227 163 110 167 107 68 -54 -61 -98 -90 -172 -90 -225 0
-16 11 -55 25 -88 14 -33 25 -68 25 -78 0 -10 31 -63 70 -116 38 -54 76 -120
85 -146 14 -42 22 -51 58 -65 105 -43 190 -28 422 75 61 28 117 50 123 50 6 0
30 21 54 46 23 25 84 70 135 100 188 111 273 196 438 445 137 204 126 175 166
423 25 156 59 260 96 298 19 19 45 31 83 38 43 8 61 17 83 42 86 99 108 221
52 293 -23 31 -31 54 -36 106 -9 83 -39 143 -82 166 -42 22 -200 27 -282 9z
m-215 -574 c27 -13 37 -27 47 -62 29 -104 67 -150 123 -150 62 0 75 -41 39
-120 -12 -25 -31 -79 -44 -120 -36 -118 -59 -170 -130 -292 -36 -62 -65 -117
-65 -123 0 -18 -52 -63 -92 -79 -20 -9 -78 -20 -130 -26 -165 -18 -208 -35
-252 -99 -43 -62 -125 -114 -189 -118 -68 -5 -96 11 -127 72 -23 47 -25 60
-25 205 0 215 6 226 205 420 83 80 161 153 174 163 14 9 50 59 82 110 126 206
161 236 279 237 47 0 81 -6 105 -18z"/>
</g>
</svg>
